<?xml version="1.0" encoding="UTF-8" standalone="no"?>
<!-- Created with Inkscape (http://www.inkscape.org/) -->

<svg
   width="1128"
   height="376"
   viewBox="0 0 298.44999 99.483333"
   version="1.1"
   id="svg5"
   xml:space="preserve"
   inkscape:version="1.2.2 (732a01da63, 2022-12-09)"
   sodipodi:docname="JAMUN Banner.svg"
   xmlns:inkscape="http://www.inkscape.org/namespaces/inkscape"
   xmlns:sodipodi="http://sodipodi.sourceforge.net/DTD/sodipodi-0.dtd"
   xmlns:xlink="http://www.w3.org/1999/xlink"
   xmlns="http://www.w3.org/2000/svg"
   xmlns:svg="http://www.w3.org/2000/svg"><sodipodi:namedview
     id="namedview7"
     pagecolor="#ffffff"
     bordercolor="#000000"
     borderopacity="0.25"
     inkscape:showpageshadow="2"
     inkscape:pageopacity="0.0"
     inkscape:pagecheckerboard="0"
     inkscape:deskcolor="#d1d1d1"
     inkscape:document-units="mm"
     showgrid="false"
     inkscape:zoom="0.914906"
     inkscape:cx="797.34967"
     inkscape:cy="464.52859"
     inkscape:window-width="2560"
     inkscape:window-height="1334"
     inkscape:window-x="-11"
     inkscape:window-y="-11"
     inkscape:window-maximized="1"
     inkscape:current-layer="layer1" /><defs
     id="defs2"><inkscape:path-effect
       effect="bspline"
       id="path-effect11078"
       is_visible="true"
       lpeversion="1"
       weight="33.333333"
       steps="2"
       helper_size="0"
       apply_no_weight="true"
       apply_with_weight="true"
       only_selected="false" /><linearGradient
       inkscape:collect="always"
       id="linearGradient4093"><stop
         style="stop-color:#009edb;stop-opacity:0.5;"
         offset="0"
         id="stop4089" /><stop
         style="stop-color:#009edb;stop-opacity:0;"
         offset="1"
         id="stop4091" /></linearGradient><linearGradient
       inkscape:collect="always"
       xlink:href="#linearGradient4093"
       id="linearGradient4095"
       x1="0"
       y1="49.742165"
       x2="298.45101"
       y2="49.742165"
       gradientUnits="userSpaceOnUse" /></defs><g
     inkscape:label="Layer 1"
     inkscape:groupmode="layer"
     id="layer1"><rect
       style="fill:url(#linearGradient4095);fill-opacity:1;stroke:#ff0000;stroke-width:0.001"
       id="rect2610"
       width="298.45001"
       height="99.48333"
       x="0.00050000002"
       y="0.00050000002" /><g
       aria-label="Lead Today.
Shape Tomorrow."
       id="text236"
       style="font-weight:600;font-size:11.2889px;font-family:Montserrat;-inkscape-font-specification:'Montserrat, Semi-Bold';fill:#ffffff;fill-opacity:0;stroke:#ff0000;stroke-width:0.001"><path
         d="m 169.35346,70.85199 v -7.902231 h 1.12889 v 6.920096 h 4.27849 v 0.982135 z"
         style="font-weight:500;-inkscape-font-specification:'Montserrat Medium';fill:#000000;fill-opacity:1"
         id="path20119" /><path
         d="m 178.48617,70.919723 q -0.95955,0 -1.69333,-0.395111 -0.72249,-0.395112 -1.12889,-1.083735 -0.39511,-0.688623 -0.39511,-1.580446 0,-0.891823 0.38382,-1.580446 0.39511,-0.688623 1.07245,-1.072445 0.68862,-0.395112 1.54658,-0.395112 0.86924,0 1.53529,0.383823 0.66604,0.383822 1.03858,1.083734 0.38382,0.688623 0.38382,1.614313 0,0.06773 -0.0113,0.158044 0,0.09031 -0.0113,0.169334 h -5.09129 v -0.778934 h 4.52684 l -0.44026,0.270933 q 0.0113,-0.575733 -0.23707,-1.027289 -0.24835,-0.451557 -0.68862,-0.699912 -0.42898,-0.259645 -1.00471,-0.259645 -0.56445,0 -1.00472,0.259645 -0.44026,0.248355 -0.68862,0.7112 -0.24836,0.451556 -0.24836,1.038579 v 0.180623 q 0,0.598311 0.27094,1.072445 0.28222,0.462845 0.77893,0.72249 0.49671,0.259645 1.14018,0.259645 0.53058,0 0.95956,-0.180623 0.44027,-0.180622 0.76764,-0.541867 l 0.59832,0.699912 q -0.40641,0.474134 -1.01601,0.722489 -0.59831,0.248356 -1.34338,0.248356 z"
         style="font-weight:500;-inkscape-font-specification:'Montserrat Medium';fill:#000000;fill-opacity:1"
         id="path20121" /><path
         d="m 186.27552,70.85199 v -1.264357 l -0.0565,-0.237067 v -2.15618 q 0,-0.688623 -0.4064,-1.061157 -0.39511,-0.383822 -1.19662,-0.383822 -0.53058,0 -1.03858,0.180622 -0.508,0.169334 -0.85796,0.462845 l -0.45155,-0.812801 q 0.46284,-0.372533 1.10631,-0.564445 0.65476,-0.2032 1.36596,-0.2032 1.23049,0 1.89653,0.598312 0.66605,0.598311 0.66605,1.828802 v 3.612448 z m -1.96427,0.06773 q -0.66605,0 -1.17405,-0.225778 -0.49671,-0.225778 -0.76764,-0.620889 -0.27094,-0.406401 -0.27094,-0.914401 0,-0.485423 0.22578,-0.880535 0.23707,-0.395111 0.75636,-0.632178 0.53058,-0.237067 1.4224,-0.237067 h 1.89654 v 0.778934 h -1.85138 q -0.8128,0 -1.09503,0.270934 -0.28222,0.270933 -0.28222,0.654756 0,0.440267 0.34996,0.711201 0.34995,0.259645 0.97084,0.259645 0.6096,0 1.06116,-0.270934 0.46284,-0.270934 0.66604,-0.790223 l 0.21449,0.745067 q -0.21449,0.530579 -0.75635,0.846668 -0.54187,0.3048 -1.36596,0.3048 z"
         style="font-weight:500;-inkscape-font-specification:'Montserrat Medium';fill:#000000;fill-opacity:1"
         id="path20123" /><path
         d="m 191.7845,70.919723 q -0.86925,0 -1.55787,-0.383822 -0.67734,-0.383823 -1.07245,-1.072446 -0.39511,-0.688623 -0.39511,-1.603024 0,-0.914401 0.39511,-1.591735 0.39511,-0.688623 1.07245,-1.072445 0.68862,-0.383823 1.55787,-0.383823 0.75635,0 1.36595,0.338667 0.6096,0.338667 0.97085,1.016001 0.37253,0.677334 0.37253,1.693335 0,1.016001 -0.36124,1.693335 -0.34996,0.677334 -0.95956,1.02729 -0.6096,0.338667 -1.38853,0.338667 z m 0.0903,-0.948267 q 0.56444,0 1.016,-0.259645 0.46284,-0.259645 0.72249,-0.733779 0.27093,-0.485422 0.27093,-1.117601 0,-0.643467 -0.27093,-1.106312 -0.25965,-0.474134 -0.72249,-0.733779 -0.45156,-0.259644 -1.016,-0.259644 -0.57574,0 -1.02729,0.259644 -0.45156,0.259645 -0.72249,0.733779 -0.27094,0.462845 -0.27094,1.106312 0,0.632179 0.27094,1.117601 0.27093,0.474134 0.72249,0.733779 0.45155,0.259645 1.02729,0.259645 z m 2.04329,0.880534 v -1.614313 l 0.0677,-1.388535 -0.11289,-1.388534 v -3.984982 h 1.08374 v 8.376364 z"
         style="font-weight:500;-inkscape-font-specification:'Montserrat Medium';fill:#000000;fill-opacity:1"
         id="path20125" /><path
         d="m 201.77515,70.85199 v -6.920096 h -2.70933 v -0.982135 h 6.53627 v 0.982135 h -2.70933 v 6.920096 z"
         style="font-weight:500;-inkscape-font-specification:'Montserrat Medium';fill:#000000;fill-opacity:1"
         id="path20127" /><path
         d="m 208.61622,70.919723 q -0.90311,0 -1.60302,-0.395111 -0.69991,-0.395112 -1.10631,-1.083735 -0.4064,-0.699912 -0.4064,-1.580446 0,-0.891823 0.4064,-1.580446 0.4064,-0.688623 1.10631,-1.072445 0.69991,-0.395112 1.60302,-0.395112 0.89183,0 1.59174,0.395112 0.7112,0.383822 1.10631,1.072445 0.4064,0.677334 0.4064,1.580446 0,0.891823 -0.4064,1.580446 -0.39511,0.688623 -1.10631,1.083735 -0.69991,0.395111 -1.59174,0.395111 z m 0,-0.948267 q 0.57574,0 1.02729,-0.259645 0.46285,-0.259645 0.72249,-0.733779 0.25965,-0.485422 0.25965,-1.117601 0,-0.643467 -0.25965,-1.106312 -0.25964,-0.474134 -0.72249,-0.733779 -0.45155,-0.259644 -1.02729,-0.259644 -0.57573,0 -1.02729,0.259644 -0.45155,0.259645 -0.72249,0.733779 -0.27093,0.462845 -0.27093,1.106312 0,0.632179 0.27093,1.117601 0.27094,0.474134 0.72249,0.733779 0.45156,0.259645 1.02729,0.259645 z"
         style="font-weight:500;-inkscape-font-specification:'Montserrat Medium';fill:#000000;fill-opacity:1"
         id="path20129" /><path
         d="m 215.69436,70.919723 q -0.86924,0 -1.55786,-0.383822 -0.67734,-0.383823 -1.07245,-1.072446 -0.39511,-0.688623 -0.39511,-1.603024 0,-0.914401 0.39511,-1.591735 0.39511,-0.688623 1.07245,-1.072445 0.68862,-0.383823 1.55786,-0.383823 0.75636,0 1.36596,0.338667 0.6096,0.338667 0.97085,1.016001 0.37253,0.677334 0.37253,1.693335 0,1.016001 -0.36124,1.693335 -0.34996,0.677334 -0.95956,1.02729 -0.6096,0.338667 -1.38854,0.338667 z m 0.0903,-0.948267 q 0.56444,0 1.016,-0.259645 0.46284,-0.259645 0.72249,-0.733779 0.27093,-0.485422 0.27093,-1.117601 0,-0.643467 -0.27093,-1.106312 -0.25965,-0.474134 -0.72249,-0.733779 -0.45156,-0.259644 -1.016,-0.259644 -0.57574,0 -1.02729,0.259644 -0.45156,0.259645 -0.72249,0.733779 -0.27094,0.462845 -0.27094,1.106312 0,0.632179 0.27094,1.117601 0.27093,0.474134 0.72249,0.733779 0.45155,0.259645 1.02729,0.259645 z m 2.04329,0.880534 v -1.614313 l 0.0677,-1.388535 -0.11289,-1.388534 v -3.984982 h 1.08374 v 8.376364 z"
         style="font-weight:500;-inkscape-font-specification:'Montserrat Medium';fill:#000000;fill-opacity:1"
         id="path20131" /><path
         d="m 224.63517,70.85199 v -1.264357 l -0.0564,-0.237067 v -2.15618 q 0,-0.688623 -0.4064,-1.061157 -0.39511,-0.383822 -1.19662,-0.383822 -0.53058,0 -1.03858,0.180622 -0.508,0.169334 -0.85796,0.462845 l -0.45155,-0.812801 q 0.46284,-0.372533 1.10631,-0.564445 0.65476,-0.2032 1.36596,-0.2032 1.23049,0 1.89653,0.598312 0.66605,0.598311 0.66605,1.828802 v 3.612448 z m -1.96427,0.06773 q -0.66605,0 -1.17405,-0.225778 -0.49671,-0.225778 -0.76764,-0.620889 -0.27094,-0.406401 -0.27094,-0.914401 0,-0.485423 0.22578,-0.880535 0.23707,-0.395111 0.75636,-0.632178 0.53058,-0.237067 1.4224,-0.237067 h 1.89654 v 0.778934 h -1.85138 q -0.81281,0 -1.09503,0.270934 -0.28222,0.270933 -0.28222,0.654756 0,0.440267 0.34996,0.711201 0.34995,0.259645 0.97084,0.259645 0.6096,0 1.06116,-0.270934 0.46284,-0.270934 0.66604,-0.790223 l 0.21449,0.745067 q -0.21449,0.530579 -0.75635,0.846668 -0.54187,0.3048 -1.36596,0.3048 z"
         style="font-weight:500;-inkscape-font-specification:'Montserrat Medium';fill:#000000;fill-opacity:1"
         id="path20133" /><path
         d="m 227.73961,73.10977 q -0.42898,0 -0.83538,-0.146756 -0.4064,-0.135467 -0.69991,-0.4064 l 0.46284,-0.812801 q 0.22578,0.214489 0.49671,0.327378 0.27094,0.112889 0.57574,0.112889 0.39511,0 0.65475,-0.2032 0.25965,-0.2032 0.48542,-0.72249 l 0.37254,-0.82409 0.11289,-0.135466 2.34809,-5.429961 h 1.06116 l -2.90125,6.581428 q -0.25965,0.632179 -0.58702,0.993424 -0.31609,0.361245 -0.69992,0.508 -0.38382,0.158045 -0.84666,0.158045 z m 1.4224,-2.065869 -2.73192,-6.175028 h 1.12889 l 2.32552,5.328361 z"
         style="font-weight:500;-inkscape-font-specification:'Montserrat Medium';fill:#000000;fill-opacity:1"
         id="path20135" /><path
         d="m 233.67756,70.919723 q -0.31609,0 -0.54187,-0.214489 -0.22578,-0.225778 -0.22578,-0.564445 0,-0.338667 0.22578,-0.553156 0.22578,-0.214489 0.54187,-0.214489 0.3048,0 0.51929,0.214489 0.22578,0.214489 0.22578,0.553156 0,0.338667 -0.22578,0.564445 -0.21449,0.214489 -0.51929,0.214489 z"
         style="font-weight:500;-inkscape-font-specification:'Montserrat Medium';fill:#000000;fill-opacity:1"
         id="path20137" /><path
         d="m 171.65639,85.053426 q -0.90311,0 -1.7272,-0.270933 -0.82409,-0.282223 -1.29822,-0.72249 l 0.41769,-0.880534 q 0.45155,0.395111 1.15146,0.654756 0.69992,0.259645 1.45627,0.259645 0.68862,0 1.1176,-0.158045 0.42898,-0.158044 0.63218,-0.428978 0.2032,-0.282222 0.2032,-0.632178 0,-0.406401 -0.27093,-0.654757 -0.25965,-0.248355 -0.68863,-0.395111 -0.41768,-0.158045 -0.92569,-0.270934 -0.508,-0.112889 -1.02728,-0.259644 -0.50801,-0.158045 -0.93698,-0.395112 -0.41769,-0.237067 -0.67734,-0.632178 -0.25964,-0.406401 -0.25964,-1.038579 0,-0.609601 0.31609,-1.117601 0.32737,-0.51929 0.99342,-0.82409 0.67733,-0.316089 1.71591,-0.316089 0.68863,0 1.36596,0.180622 0.67733,0.180623 1.17405,0.51929 l -0.37254,0.903112 q -0.508,-0.338667 -1.07244,-0.485423 -0.56445,-0.158045 -1.09503,-0.158045 -0.66604,0 -1.09502,0.169334 -0.42898,0.169333 -0.63218,0.451556 -0.19191,0.282222 -0.19191,0.632178 0,0.41769 0.25964,0.666045 0.27094,0.248356 0.68863,0.395112 0.42898,0.146756 0.93698,0.270933 0.508,0.112889 1.016,0.259645 0.51929,0.146756 0.93698,0.383823 0.42897,0.237067 0.68862,0.632178 0.25964,0.395112 0.25964,1.016001 0,0.598312 -0.32737,1.117601 -0.32738,0.508001 -1.01601,0.82409 -0.67733,0.3048 -1.71591,0.3048 z"
         style="font-weight:500;-inkscape-font-specification:'Montserrat Medium';fill:#000000;fill-opacity:1"
         id="path20139" /><path
         d="m 176.20582,84.963115 v -8.376364 h 1.08374 v 4.00756 l -0.21449,-0.428978 q 0.29351,-0.587023 0.90311,-0.914401 0.6096,-0.327378 1.4224,-0.327378 0.73378,0 1.28694,0.282222 0.56444,0.282223 0.88053,0.857956 0.31609,0.575734 0.31609,1.456269 v 3.443114 h -1.08374 v -3.318936 q 0,-0.869246 -0.42897,-1.309513 -0.41769,-0.440267 -1.18534,-0.440267 -0.57573,0 -1.00471,0.225778 -0.42898,0.225778 -0.66605,0.666045 -0.22577,0.440267 -0.22577,1.095023 v 3.08187 z"
         style="font-weight:500;-inkscape-font-specification:'Montserrat Medium';fill:#000000;fill-opacity:1"
         id="path20141" /><path
         d="m 187.60761,84.963115 v -1.264357 l -0.0564,-0.237067 v -2.15618 q 0,-0.688622 -0.4064,-1.061156 -0.39511,-0.383823 -1.19662,-0.383823 -0.53058,0 -1.03858,0.180623 -0.508,0.169333 -0.85796,0.462845 l -0.45155,-0.812801 q 0.46284,-0.372534 1.10631,-0.564445 0.65476,-0.2032 1.36596,-0.2032 1.23049,0 1.89653,0.598311 0.66605,0.598312 0.66605,1.828802 v 3.612448 z m -1.96427,0.06773 q -0.66605,0 -1.17405,-0.225778 -0.49671,-0.225778 -0.76764,-0.62089 -0.27093,-0.4064 -0.27093,-0.914401 0,-0.485423 0.22577,-0.880534 0.23707,-0.395112 0.75636,-0.632178 0.53058,-0.237067 1.4224,-0.237067 h 1.89654 v 0.778934 h -1.85138 q -0.8128,0 -1.09503,0.270933 -0.28222,0.270934 -0.28222,0.654757 0,0.440267 0.34996,0.7112 0.34995,0.259645 0.97084,0.259645 0.6096,0 1.06116,-0.270934 0.46284,-0.270933 0.66604,-0.790223 l 0.21449,0.745068 q -0.21449,0.530578 -0.75635,0.846667 -0.54187,0.304801 -1.36596,0.304801 z"
         style="font-weight:500;-inkscape-font-specification:'Montserrat Medium';fill:#000000;fill-opacity:1"
         id="path20143" /><path
         d="m 193.8165,85.030849 q -0.74507,0 -1.36596,-0.338667 -0.6096,-0.349956 -0.98213,-1.02729 -0.36125,-0.677334 -0.36125,-1.693335 0,-1.016001 0.34996,-1.693335 0.36124,-0.677334 0.97084,-1.016001 0.62089,-0.338667 1.38854,-0.338667 0.88053,0 1.55787,0.383822 0.67733,0.383823 1.07244,1.072446 0.39511,0.677334 0.39511,1.591735 0,0.914401 -0.39511,1.603023 -0.39511,0.688623 -1.07244,1.072446 -0.67734,0.383823 -1.55787,0.383823 z m -3.17218,2.122313 v -8.173164 h 1.03858 v 1.614313 l -0.0677,1.388535 0.11289,1.388534 v 3.781782 z m 3.08187,-3.070581 q 0.57573,0 1.02729,-0.259645 0.46284,-0.259644 0.72249,-0.733778 0.27093,-0.485423 0.27093,-1.117601 0,-0.643468 -0.27093,-1.106313 -0.25965,-0.474133 -0.72249,-0.733778 -0.45156,-0.259645 -1.02729,-0.259645 -0.56445,0 -1.02729,0.259645 -0.45156,0.259645 -0.72249,0.733778 -0.25965,0.462845 -0.25965,1.106313 0,0.632178 0.25965,1.117601 0.27093,0.474134 0.72249,0.733778 0.46284,0.259645 1.02729,0.259645 z"
         style="font-weight:500;-inkscape-font-specification:'Montserrat Medium';fill:#000000;fill-opacity:1"
         id="path20145" /><path
         d="m 201.00752,85.030849 q -0.95956,0 -1.69334,-0.395112 -0.72249,-0.395111 -1.12889,-1.083734 -0.39511,-0.688623 -0.39511,-1.580446 0,-0.891824 0.38382,-1.580446 0.39512,-0.688623 1.07245,-1.072446 0.68862,-0.395111 1.54658,-0.395111 0.86924,0 1.53529,0.383822 0.66604,0.383823 1.03858,1.083735 0.38382,0.688622 0.38382,1.614312 0,0.06773 -0.0113,0.158045 0,0.09031 -0.0113,0.169333 h -5.09129 v -0.778934 h 4.52685 l -0.44027,0.270934 q 0.0113,-0.575734 -0.23707,-1.02729 -0.24835,-0.451556 -0.68862,-0.699912 -0.42898,-0.259645 -1.00471,-0.259645 -0.56445,0 -1.00471,0.259645 -0.44027,0.248356 -0.68863,0.711201 -0.24835,0.451556 -0.24835,1.038579 v 0.180622 q 0,0.598312 0.27093,1.072446 0.28222,0.462845 0.77894,0.722489 0.49671,0.259645 1.14017,0.259645 0.53058,0 0.95956,-0.180622 0.44027,-0.180623 0.76765,-0.541868 l 0.59831,0.699912 q -0.4064,0.474134 -1.016,0.72249 -0.59831,0.248356 -1.34338,0.248356 z"
         style="font-weight:500;-inkscape-font-specification:'Montserrat Medium';fill:#000000;fill-opacity:1"
         id="path20147" /><path
         d="m 210.01605,84.963115 v -6.920096 h -2.70934 v -0.982134 h 6.53627 v 0.982134 h -2.70933 v 6.920096 z"
         style="font-weight:500;-inkscape-font-specification:'Montserrat Medium';fill:#000000;fill-opacity:1"
         id="path20149" /><path
         d="m 216.85712,85.030849 q -0.90312,0 -1.60303,-0.395112 -0.69991,-0.395111 -1.10631,-1.083734 -0.4064,-0.699912 -0.4064,-1.580446 0,-0.891824 0.4064,-1.580446 0.4064,-0.688623 1.10631,-1.072446 0.69991,-0.395111 1.60303,-0.395111 0.89182,0 1.59173,0.395111 0.7112,0.383823 1.10631,1.072446 0.4064,0.677334 0.4064,1.580446 0,0.891823 -0.4064,1.580446 -0.39511,0.688623 -1.10631,1.083734 -0.69991,0.395112 -1.59173,0.395112 z m 0,-0.948268 q 0.57573,0 1.02729,-0.259645 0.46284,-0.259644 0.72249,-0.733778 0.25964,-0.485423 0.25964,-1.117601 0,-0.643468 -0.25964,-1.106313 -0.25965,-0.474133 -0.72249,-0.733778 -0.45156,-0.259645 -1.02729,-0.259645 -0.57574,0 -1.02729,0.259645 -0.45156,0.259645 -0.72249,0.733778 -0.27094,0.462845 -0.27094,1.106313 0,0.632178 0.27094,1.117601 0.27093,0.474134 0.72249,0.733778 0.45155,0.259645 1.02729,0.259645 z"
         style="font-weight:500;-inkscape-font-specification:'Montserrat Medium';fill:#000000;fill-opacity:1"
         id="path20151" /><path
         d="m 221.46299,84.963115 v -5.983117 h 1.03858 v 1.591735 l -0.16934,-0.4064 q 0.28223,-0.587023 0.86925,-0.914401 0.58702,-0.327378 1.36596,-0.327378 0.85795,0 1.47884,0.428978 0.62089,0.417689 0.8128,1.275645 l -0.44026,-0.180622 q 0.27093,-0.688623 0.94826,-1.106312 0.67734,-0.417689 1.58045,-0.417689 0.72249,0 1.27565,0.282222 0.55315,0.282223 0.85795,0.857956 0.31609,0.575734 0.31609,1.456269 v 3.443114 h -1.08373 v -3.318936 q 0,-0.869246 -0.4064,-1.309513 -0.4064,-0.440267 -1.14018,-0.440267 -0.54187,0 -0.94827,0.225778 -0.4064,0.225778 -0.63218,0.666045 -0.21449,0.440267 -0.21449,1.095023 v 3.08187 h -1.08373 v -3.318936 q 0,-0.869246 -0.4064,-1.309513 -0.39511,-0.440267 -1.14018,-0.440267 -0.53058,0 -0.93698,0.225778 -0.4064,0.225778 -0.63218,0.666045 -0.22578,0.440267 -0.22578,1.095023 v 3.08187 z"
         style="font-weight:500;-inkscape-font-specification:'Montserrat Medium';fill:#000000;fill-opacity:1"
         id="path20153" /><path
         d="m 235.95793,85.030849 q -0.90311,0 -1.60303,-0.395112 -0.69991,-0.395111 -1.10631,-1.083734 -0.4064,-0.699912 -0.4064,-1.580446 0,-0.891824 0.4064,-1.580446 0.4064,-0.688623 1.10631,-1.072446 0.69992,-0.395111 1.60303,-0.395111 0.89182,0 1.59173,0.395111 0.7112,0.383823 1.10631,1.072446 0.40641,0.677334 0.40641,1.580446 0,0.891823 -0.40641,1.580446 -0.39511,0.688623 -1.10631,1.083734 -0.69991,0.395112 -1.59173,0.395112 z m 0,-0.948268 q 0.57573,0 1.02729,-0.259645 0.46284,-0.259644 0.72249,-0.733778 0.25964,-0.485423 0.25964,-1.117601 0,-0.643468 -0.25964,-1.106313 -0.25965,-0.474133 -0.72249,-0.733778 -0.45156,-0.259645 -1.02729,-0.259645 -0.57574,0 -1.02729,0.259645 -0.45156,0.259645 -0.72249,0.733778 -0.27094,0.462845 -0.27094,1.106313 0,0.632178 0.27094,1.117601 0.27093,0.474134 0.72249,0.733778 0.45155,0.259645 1.02729,0.259645 z"
         style="font-weight:500;-inkscape-font-specification:'Montserrat Medium';fill:#000000;fill-opacity:1"
         id="path20155" /><path
         d="m 240.5638,84.963115 v -5.983117 h 1.03858 V 80.6056 l -0.1016,-0.406401 q 0.24836,-0.620889 0.83538,-0.948267 0.58702,-0.327378 1.44498,-0.327378 v 1.049867 q -0.0677,-0.01129 -0.13547,-0.01129 -0.0564,0 -0.11288,0 -0.86925,0 -1.37725,0.51929 -0.508,0.519289 -0.508,1.501424 v 2.980269 z"
         style="font-weight:500;-inkscape-font-specification:'Montserrat Medium';fill:#000000;fill-opacity:1"
         id="path20157" /><path
         d="m 245.11323,84.963115 v -5.983117 h 1.03858 V 80.6056 l -0.1016,-0.406401 q 0.24835,-0.620889 0.83537,-0.948267 0.58703,-0.327378 1.44498,-0.327378 v 1.049867 q -0.0677,-0.01129 -0.13546,-0.01129 -0.0564,0 -0.11289,0 -0.86925,0 -1.37725,0.51929 -0.508,0.519289 -0.508,1.501424 v 2.980269 z"
         style="font-weight:500;-inkscape-font-specification:'Montserrat Medium';fill:#000000;fill-opacity:1"
         id="path20159" /><path
         d="m 252.1688,85.030849 q -0.90312,0 -1.60303,-0.395112 -0.69991,-0.395111 -1.10631,-1.083734 -0.4064,-0.699912 -0.4064,-1.580446 0,-0.891824 0.4064,-1.580446 0.4064,-0.688623 1.10631,-1.072446 0.69991,-0.395111 1.60303,-0.395111 0.89182,0 1.59173,0.395111 0.7112,0.383823 1.10631,1.072446 0.4064,0.677334 0.4064,1.580446 0,0.891823 -0.4064,1.580446 -0.39511,0.688623 -1.10631,1.083734 -0.69991,0.395112 -1.59173,0.395112 z m 0,-0.948268 q 0.57573,0 1.02729,-0.259645 0.46284,-0.259644 0.72249,-0.733778 0.25964,-0.485423 0.25964,-1.117601 0,-0.643468 -0.25964,-1.106313 -0.25965,-0.474133 -0.72249,-0.733778 -0.45156,-0.259645 -1.02729,-0.259645 -0.57574,0 -1.02729,0.259645 -0.45156,0.259645 -0.72249,0.733778 -0.27094,0.462845 -0.27094,1.106313 0,0.632178 0.27094,1.117601 0.27093,0.474134 0.72249,0.733778 0.45155,0.259645 1.02729,0.259645 z"
         style="font-weight:500;-inkscape-font-specification:'Montserrat Medium';fill:#000000;fill-opacity:1"
         id="path20161" /><path
         d="m 257.8697,84.963115 -2.22391,-5.983117 h 1.02729 l 1.97556,5.418672 h -0.48543 l 2.05458,-5.418672 h 0.91441 l 2.00942,5.418672 h -0.47413 l 2.02071,-5.418672 h 0.97084 l -2.2352,5.983117 h -1.03858 l -1.88524,-4.944538 h 0.31609 l -1.90783,4.944538 z"
         style="font-weight:500;-inkscape-font-specification:'Montserrat Medium';fill:#000000;fill-opacity:1"
         id="path20163" /><path
         d="m 266.64117,85.030849 q -0.31609,0 -0.54187,-0.214489 -0.22578,-0.225778 -0.22578,-0.564446 0,-0.338667 0.22578,-0.553156 0.22578,-0.214489 0.54187,-0.214489 0.3048,0 0.51929,0.214489 0.22577,0.214489 0.22577,0.553156 0,0.338668 -0.22577,0.564446 -0.21449,0.214489 -0.51929,0.214489 z"
         style="font-weight:500;-inkscape-font-specification:'Montserrat Medium';fill:#000000;fill-opacity:1"
         id="path20165" /></g><g
       id="g5284"
       inkscape:export-filename="Downloads\JAMUN_LOGO_PNG.png"
       inkscape:export-xdpi="96"
       inkscape:export-ydpi="96"
       transform="matrix(0.39784181,0,0,0.39784181,238.55122,12.860412)"><rect
         style="fill:#ffffff;fill-opacity:0;stroke:#ff0000;stroke-width:0.001"
         id="rect5181"
         width="125.67709"
         height="125.67709"
         x="-4.8947968"
         y="-11.244797" /><g
         id="g5127"
         inkscape:export-filename="Downloads\JAMUN_LOGO_PNG.png"
         inkscape:export-xdpi="96"
         inkscape:export-ydpi="96"
         transform="translate(0,3.7041668)"><g
           id="g3685"
           transform="translate(-134.60712,-107.21685)"
           style="fill:#009edb;fill-opacity:1"><path
             style="fill:#009edb;fill-opacity:1;stroke-width:0.955355"
             d="m 241.04458,170.83588 c 0,0 0.49738,-4.88159 -0.24867,-6.93697 -1.9895,-6.16619 -3.97897,-12.84622 -3.7303,-19.26933 1.9895,7.70773 8.20665,10.27696 5.4711,20.81086 0.99475,-2.05538 1.24342,-4.3677 1.98947,-6.42311 1.49213,-5.65232 5.71977,-10.53387 4.47635,-17.21392 1.98946,5.90925 1.98946,10.5339 0,16.70006 -1.24343,4.62469 -5.71978,7.96468 -7.95795,12.33241"
             id="path3666" /><path
             style="fill:#009edb;fill-opacity:1;stroke-width:0.955355"
             d="m 242.288,141.03264 c -0.99471,-2.05541 -2.73555,-4.11079 -4.47635,-5.65235 -4.47631,-3.34002 -8.95266,-7.70772 -9.20133,-13.36007 2.48685,6.1662 10.19609,7.19391 11.93688,13.61702 0,0 -0.99475,-3.85388 -1.24342,-4.62464 -1.24342,-4.36774 -0.99475,-9.50623 -5.22239,-12.33237 8.20661,1.79847 8.70399,11.04775 8.20661,17.98468 0,1.54156 -0.24867,2.82618 0,4.36773"
             id="path3664" /><path
             style="fill:#009edb;fill-opacity:1;stroke-width:0.955355"
             d="m 237.31431,128.70028 c -2.23817,-2.05542 -4.97372,-3.85389 -6.96323,-6.42311 -2.23813,-3.08313 -4.22764,-6.68007 -7.21186,-9.5062 3.97897,1.79847 8.45532,3.33999 11.19084,7.70773 1.49213,2.56922 1.74083,5.65231 2.98425,8.22158"
             id="path3662" /><path
             style="fill:#009edb;fill-opacity:1;stroke-width:0.955355"
             d="m 235.57351,140.00494 c -0.99475,-2.05541 -1.49212,-4.62465 -1.9895,-6.93696 0.49738,1.0277 0.99475,2.0554 1.7408,2.82617 4.72502,4.11079 7.46057,6.42311 8.70399,12.84622 l -0.49734,-5.65235 c -0.49738,-5.65231 2.48685,-11.81851 -0.74608,-16.70007 3.23293,3.59694 4.97372,8.22159 4.97372,12.84623 0,6.16617 -3.48159,10.5339 -3.7303,16.44316 -0.99472,-6.16621 -5.96844,-10.5339 -8.45529,-15.6724"
             id="path3660" /><path
             style="fill:#009edb;fill-opacity:1;stroke-width:0.955355"
             d="m 232.09188,184.96671 c 0,0 1.49213,-2.82617 1.98951,-4.62464 1.7408,-6.93696 0.74604,-15.41545 3.73026,-22.09551 -0.49734,3.85388 0.99476,7.19388 1.24346,10.79085 0.49734,4.88156 -1.24346,8.22155 -2.48688,10.53386 0,0 1.7408,-2.31231 2.48688,-3.59693 3.4816,-5.65231 10.69346,-9.50619 11.19084,-16.44316 0.99475,15.15854 -9.20137,19.26934 -18.15407,25.43553"
             id="path3658" /><path
             style="fill:#009edb;fill-opacity:1;stroke-width:0.955355"
             d="m 198.51934,197.04214 c 11.93692,0 18.15406,10.79084 29.84228,3.59693 -5.71978,7.19391 -14.92114,7.70777 -22.38171,2.82618 -2.98422,-2.05538 -5.71977,-4.88155 -9.45004,-4.88155 -5.71981,0 -11.93692,6.1662 -17.15932,11.81852 -0.99475,-0.77077 -1.74083,-1.54156 -2.48688,-2.31233 5.47111,-5.3954 13.42905,-11.04775 21.63567,-11.04775"
             id="path3656" /><path
             style="fill:#009edb;fill-opacity:1;stroke-width:0.955355"
             d="m 208.46675,197.55599 c -0.74605,-0.25691 -1.7408,-0.25691 -2.73551,-0.51385 3.48159,-0.51385 6.71448,-1.79846 9.20133,-4.11079 3.7303,-3.59693 6.96323,-7.19387 10.9422,-10.02005 -4.22768,8.73544 -5.71977,12.33238 -12.68296,13.87394 0,0 1.98946,-0.25691 2.98422,-0.51386 7.46057,-1.54156 16.41323,0.51386 21.88433,-5.90926 -2.23817,4.11079 -6.46582,7.45078 -10.44479,8.99234 -6.46582,2.05541 -13.18034,-0.25691 -19.14882,-1.79847"
             id="path3654" /><path
             style="fill:#009edb;fill-opacity:1;stroke-width:0.955355"
             d="m 220.90105,194.47291 c 4.72501,-4.11079 5.4711,-10.02004 7.46057,-15.15855 1.24342,-3.34002 3.48159,-6.16616 5.71977,-8.99233 -2.98422,8.7354 -1.24343,14.90159 -8.45533,21.0678 1.24343,-0.51386 2.48689,-1.54156 3.4816,-2.31232 5.71977,-4.88159 14.17509,-5.65236 17.65669,-13.61702 -0.99475,5.90925 -5.47106,11.04775 -10.19612,14.38778 -4.72502,3.08308 -10.69346,2.82617 -15.66718,4.62464"
             id="path3652" /><path
             style="fill:#009edb;fill-opacity:1;stroke-width:0.955355"
             d="m 144.05717,170.83588 c 0,0 -0.49737,-4.88159 0.24867,-6.93697 1.98951,-6.16619 3.97898,-12.84622 3.73031,-19.26933 -1.98951,7.70773 -8.20662,10.27696 -5.4711,20.81086 -0.99472,-2.05538 -1.24343,-4.3677 -1.98947,-6.42311 -1.49213,-5.65232 -5.71977,-10.53387 -4.47635,-17.21392 -1.98947,5.90925 -1.98947,10.5339 0,16.70006 1.24342,4.62469 5.71977,7.96468 7.95794,12.33241"
             id="path3650" /><path
             style="fill:#009edb;fill-opacity:1;stroke-width:0.955355"
             d="m 142.81375,141.03264 c 0.99475,-2.05541 2.73555,-4.11079 4.47635,-5.65235 4.47631,-3.34002 8.95266,-7.70772 9.20137,-13.36007 -2.48688,6.1662 -10.19612,7.19391 -11.93692,13.61702 0,0 0.99475,-3.85388 1.24342,-4.62464 1.24343,-4.36774 0.99476,-9.50623 5.2224,-12.33237 -8.20662,1.79847 -8.70399,11.04775 -8.20662,17.98468 0,1.54156 0.24867,2.82618 0,4.36773"
             id="path3648" /><path
             style="fill:#009edb;fill-opacity:1;stroke-width:0.955355"
             d="m 147.78744,128.70028 c 2.23818,-2.05542 4.97373,-3.85389 6.96323,-6.42311 2.23814,-3.08313 4.22764,-6.68007 7.21186,-9.5062 -3.97897,1.79847 -8.45532,3.33999 -11.19083,7.70773 -1.49213,2.56922 -1.7408,5.65231 -2.98426,8.22158"
             id="path3646" /><path
             style="fill:#009edb;fill-opacity:1;stroke-width:0.955355"
             d="m 149.52828,140.00494 c 0.99471,-2.05541 1.49209,-4.62465 1.98946,-6.93696 -0.49737,1.0277 -0.99475,2.0554 -1.74079,2.82617 -4.72502,4.11079 -7.46057,6.42311 -8.704,12.84622 l 0.49738,-5.65235 c 0.49734,-5.65231 -2.48688,-11.81851 0.74605,-16.70007 -3.23293,3.59694 -4.97373,8.22159 -4.97373,12.84623 0,6.16617 3.4816,10.5339 3.7303,16.44316 0.99472,-6.16621 5.96845,-10.5339 8.45533,-15.6724"
             id="path3644" /><path
             style="fill:#009edb;fill-opacity:1;stroke-width:0.955355"
             d="m 153.00987,184.96671 c 0,0 -1.49213,-2.82617 -1.9895,-4.62464 -1.7408,-6.93696 -0.74605,-15.41545 -3.73027,-22.09551 0.49734,3.85388 -0.99475,7.19388 -1.24346,10.79085 -0.49734,4.88156 1.24346,8.22155 2.48688,10.53386 0,0 -1.74079,-2.31231 -2.48688,-3.59693 -3.48159,-5.65231 -10.69346,-9.50619 -11.19083,-16.44316 -0.99476,15.15854 9.20136,19.26934 18.15406,25.43553"
             id="path3642" /><path
             style="fill:#009edb;fill-opacity:1;stroke-width:0.955355"
             d="m 186.58242,197.04214 c -11.93692,0 -18.15407,10.79084 -29.84228,3.59693 5.71977,7.19391 14.92114,7.70777 22.38171,2.82618 2.98422,-2.05538 5.71977,-4.88155 9.45007,-4.88155 5.71977,0 11.93689,6.1662 17.15932,11.81852 0.99471,-0.77077 1.74076,-1.54156 2.48684,-2.31233 -5.4711,-5.3954 -13.42905,-11.04775 -21.63566,-11.04775"
             id="path3640" /><path
             style="fill:#009edb;fill-opacity:1;stroke-width:0.955355"
             d="m 176.635,197.55599 c 0.74605,-0.25691 1.7408,-0.25691 2.73555,-0.51385 -3.48163,-0.51385 -6.71452,-1.79846 -9.20136,-4.11079 -3.73031,-3.59693 -6.96323,-7.19387 -10.94221,-10.02005 4.22768,8.73544 5.71978,12.33238 12.683,13.87394 0,0 -1.9895,-0.25691 -2.98425,-0.51386 -7.46057,-1.54156 -16.41323,0.51386 -21.88433,-5.90926 2.23817,4.11079 6.46581,7.45078 10.44479,8.99234 6.46585,2.05541 13.18034,-0.25691 19.14881,-1.79847"
             id="path3638" /><path
             style="fill:#009edb;fill-opacity:1;stroke-width:0.955355"
             d="m 164.20071,194.47291 c -4.72502,-4.11079 -5.47107,-10.02004 -7.46057,-15.15855 -1.24342,-3.34002 -3.4816,-6.16616 -5.71977,-8.99233 2.98422,8.7354 1.24342,14.90159 8.45532,21.0678 -1.24342,-0.51386 -2.48688,-1.54156 -3.4816,-2.31232 -5.71977,-4.88159 -14.17509,-5.65236 -17.65669,-13.61702 0.99476,5.90925 5.4711,11.04775 10.19612,14.38778 4.72502,3.08308 10.69346,2.82617 15.66719,4.62464"
             id="path1950" /></g><g
           id="g5250"
           transform="translate(-63.56453,-61.024084)"
           style="fill:#6e6e6e;fill-opacity:1"><rect
             style="fill:#6e6e6e;fill-opacity:1;stroke:#ff0000;stroke-width:0.000395032"
             id="rect5205"
             width="5.8208332"
             height="23.8125"
             x="96.382393"
             y="91.205116"
             rx="0.79374999"
             ry="0.79374999" /><rect
             style="fill:#6e6e6e;fill-opacity:1;stroke:#ff0000;stroke-width:0.000395032"
             id="rect5207"
             width="5.8208332"
             height="23.8125"
             x="111.19905"
             y="91.205116"
             rx="0.79374999"
             ry="0.79374999" /><rect
             style="fill:#6e6e6e;fill-opacity:1;stroke:#ff0000;stroke-width:0.000395032"
             id="rect5209"
             width="5.8208332"
             height="23.8125"
             x="126.01572"
             y="91.205116"
             rx="0.79374999"
             ry="0.79374999" /><rect
             style="fill:#6e6e6e;fill-opacity:1;stroke:#ff0000;stroke-width:0.000395032"
             id="rect5211"
             width="5.8208332"
             height="23.8125"
             x="140.83234"
             y="91.205116"
             rx="0.79374999"
             ry="0.79374999" /></g><path
           style="fill:#009edb;fill-opacity:1;stroke:#ff0000;stroke-width:0.000499992"
           id="path5213"
           sodipodi:type="arc"
           sodipodi:cx="57.970905"
           sodipodi:cy="-21.168547"
           sodipodi:rx="25.135166"
           sodipodi:ry="21.166168"
           sodipodi:start="0"
           sodipodi:end="3.1415927"
           sodipodi:arc-type="slice"
           d="m 83.106071,-21.168547 a 25.135166,21.166168 0 0 1 -12.567583,18.3304399 25.135166,21.166168 0 0 1 -25.135166,-5e-7 25.135166,21.166168 0 0 1 -12.567583,-18.3304394 h 25.135166 z"
           transform="scale(1,-1)" /><rect
           style="fill:#009edb;fill-opacity:1;stroke:#ff0000;stroke-width:0.001"
           id="rect5217"
           width="66.145836"
           height="5.8208332"
           x="24.85758"
           y="22.764402"
           rx="2.6458333"
           ry="2.6458333" /><path
           id="rect5219"
           style="fill:#009edb;fill-opacity:1;stroke:#ff0000;stroke-width:0.001"
           d="m 29.64657,55.589332 c -0.43973,0 -0.79376,0.33015 -0.79376,0.74052 v 2.69803 h -3.17499 c -0.43974,0 -0.79376,0.35401 -0.79376,0.79375 v 2.38125 c 0,0.43973 0.35402,0.79375 0.79376,0.79375 h 3.96875 56.61984 3.96979 c 0.43974,0 0.79375,-0.35402 0.79375,-0.79375 v -2.38125 c 0,-0.43974 -0.35401,-0.79375 -0.79375,-0.79375 h -3.17604 v -2.69803 c 0,-0.41037 -0.35402,-0.74052 -0.79375,-0.74052 z" /><g
           aria-label="JAMUN"
           id="text5306"
           style="font-weight:600;font-size:13.4056px;font-family:Montserrat;-inkscape-font-specification:'Montserrat, Semi-Bold';fill:#ff0000;fill-opacity:0.465517;stroke:#ff0000;stroke-width:0.001"><path
             d="m 35.824353,78.132339 q -0.898176,0 -1.662295,-0.348545 -0.750713,-0.348546 -1.233315,-1.00542 l 0.992014,-1.193099 q 0.388763,0.536224 0.844553,0.804336 0.469196,0.268112 1.018826,0.268112 1.46121,0 1.46121,-1.729322 v -4.852827 h -3.337994 v -1.46121 h 5.080722 v 6.220198 q 0,1.662294 -0.817741,2.480036 -0.804336,0.817741 -2.34598,0.817741 z"
             style="fill:#6e6e6e;fill-opacity:1"
             id="path5003" /><path
             d="m 39.899669,77.998283 4.222764,-9.383919 h 1.715916 l 4.23617,9.383919 H 48.251357 L 44.61844,69.53935 h 0.697091 l -3.619512,8.458933 z m 1.943812,-2.171707 0.469196,-1.367371 h 5.067316 l 0.469196,1.367371 z"
             style="fill:#6e6e6e;fill-opacity:1"
             id="path5005" /><path
             d="m 51.267624,77.998283 v -9.383919 h 1.434399 l 4.102114,6.850261 h -0.750714 l 4.035086,-6.850261 h 1.434399 l 0.0134,9.383919 H 59.88742 l -0.01341,-6.796639 h 0.348546 l -3.431834,5.724191 h -0.777525 l -3.485455,-5.724191 h 0.402167 v 6.796639 z"
             style="fill:#000000;fill-opacity:1"
             id="path5007" /><path
             d="m 68.105057,78.132339 q -1.930407,0 -3.029666,-1.085853 -1.085853,-1.085854 -1.085853,-3.13691 v -5.295212 h 1.742728 v 5.228184 q 0,1.447804 0.616657,2.104679 0.630063,0.656874 1.769539,0.656874 1.139476,0 1.756134,-0.656874 0.616658,-0.656875 0.616658,-2.104679 v -5.228184 h 1.715916 v 5.295212 q 0,2.051056 -1.099259,3.13691 -1.085853,1.085853 -3.002854,1.085853 z"
             style="fill:#000000;fill-opacity:1"
             id="path5009" /><path
             d="m 74.646982,77.998283 v -9.383919 h 1.4344 l 5.885058,7.225618 h -0.710497 v -7.225618 h 1.729322 v 9.383919 h -1.434399 l -5.885058,-7.225618 h 0.710497 v 7.225618 z"
             style="fill:#000000;fill-opacity:1"
             id="path5011" /></g></g></g><path
       style="fill:#6e6e6e;fill-opacity:0.5;stroke:#000000;stroke-width:1;stroke-dasharray:8,3,6,4,7,4;stroke-dashoffset:2;stroke-opacity:1;stroke-linecap:round"
       d="m 31.232715,-16.194742 c 4.916328,22.5572701 9.832589,45.114232 22.268161,61.8392 12.435573,16.724968 32.38941,27.61764 44.246205,38.896311 11.856799,11.27867 15.616209,22.942501 19.375599,34.606261"
       id="path11076"
       inkscape:path-effect="#path-effect11078"
       inkscape:original-d="m 31.232715,-16.194742 c 4.916528,22.5572265 9.832787,45.114189 14.748783,67.670887 19.954901,10.893372 39.908736,21.786048 59.862712,32.678674 3.75983,11.664568 7.51925,23.328401 11.27847,34.992211" /></g></svg>
